Coordinates
version=1
nRows=7
nColumns=60
inDegrees=yes

Units are S.I. units (second, meters, Newtons, ...)
If the header above contains a line with 'inDegrees', this indicates whether rotational values are in degrees (yes) or radians (no).

endheader
time	pelvis_tilt	pelvis_list	pelvis_rotation	pelvis_tx	pelvis_ty	pelvis_tz	hip_flexion_r	hip_adduction_r	hip_rotation_r	knee_angle_r_beta	knee_angle_r	ankle_angle_r	subtalar_angle_r	mtp_angle_r	hip_flexion_l	hip_adduction_l	hip_rotation_l	knee_angle_l_beta	knee_angle_l	ankle_angle_l	subtalar_angle_l	mtp_angle_l	L5_S1_Flex_Ext	L5_S1_Lat_Bending	L5_S1_axial_rotation	L4_L5_Flex_Ext	L4_L5_Lat_Bending	L4_L5_axial_rotation	L3_L4_Flex_Ext	L3_L4_Lat_Bending	L3_L4_axial_rotation	L2_L3_Flex_Ext	L2_L3_Lat_Bending	L2_L3_axial_rotation	L1_L2_Flex_Ext	L1_L2_Lat_Bending	L1_L2_axial_rotation	L1_T12_Flex_Ext	L1_T12_Lat_Bending	L1_T12_axial_rotation	Abs_r3	Abs_r2	Abs_r1	Abs_t1	Abs_t2	arm_flex_r	arm_add_r	arm_rot_r	elbow_flex_r	pro_sup_r	wrist_flex_r	wrist_dev_r	arm_flex_l	arm_add_l	arm_rot_l	elbow_flex_l	pro_sup_l	wrist_flex_l	wrist_dev_l
     20.42000000	      0.88095367	     -1.34651086	     93.13782424	      0.40475990	      0.93073330	      0.30089427	     13.45882025	     -4.16918979	      1.57489139	      0.28228975	    -16.17401135	      5.75562551	      0.00000000	      0.00000000	     12.85799188	     -6.03690214	      2.48375755	      0.21085091	    -12.08086725	      4.83127234	      0.00000000	      0.00000000	     -6.54741073	      0.30588040	     -0.10363165	    -12.15919648	      0.40682093	     -0.11010863	    -10.75674110	      0.74371760	     -0.11010863	     -7.48303573	      0.74371760	     -0.09067770	     -6.07992561	      0.62375131	     -0.08420072	     -3.74119049	      0.47380874	     -0.07772374	    -46.76750014	      3.46018025	     -0.57636816	      0.00000000	      0.00000000	     81.32099835	    -15.80126954	     12.91005762	     43.34271759	     65.23450383	     17.87579402	     23.59773264	     87.92920023	    -16.54350367	     34.06801988	     31.93599850	     48.10934598	     26.43545609	     12.40939243
     20.43000000	      0.90362489	     -1.46322391	     93.17208776	      0.40518367	      0.93067217	      0.30268096	     13.68064081	     -4.12883309	      1.56216124	      0.28119224	    -16.11112849	      5.69855439	      0.00000000	      0.00000000	     13.06304213	     -6.07370691	      2.47384177	      0.20894451	    -11.97163845	      4.78077587	      0.00000000	      0.00000000	     -6.56947690	      0.30376031	     -0.10565182	    -12.20017554	      0.40400121	     -0.11225506	    -10.79299359	      0.73856282	     -0.11225506	     -7.50825514	      0.73856282	     -0.09244534	     -6.10041625	      0.61942803	     -0.08584210	     -3.75379910	      0.47052472	     -0.07923886	    -46.92511652	      3.43619739	     -0.58760372	      0.00000000	      0.00000000	     81.57627467	    -15.76665632	     12.80572316	     43.47064868	     65.23442821	     17.86745979	     23.56871704	     88.24807295	    -16.57706427	     33.95967334	     32.03550558	     48.11198723	     26.42660298	     12.38239195
     20.44000000	      0.95215512	     -1.73304876	     93.17461610	      0.40568019	      0.93047380	      0.30445320	     14.08762179	     -4.06449788	      1.63937299	      0.28035100	    -16.06292896	      5.16158127	      0.00000000	      0.00000000	     13.35410770	     -6.13726817	      2.61720822	      0.20403603	    -11.69040336	      4.21578865	      0.00000000	      0.00000000	     -6.56634367	      0.30289046	     -0.10207180	    -12.19435683	      0.40284431	     -0.10845129	    -10.78784602	      0.73644785	     -0.10845129	     -7.50467418	      0.73644785	     -0.08931282	     -6.09750673	      0.61765422	     -0.08293334	     -3.75200877	      0.46917732	     -0.07655385	    -46.90273621	      3.42635742	     -0.56769272	      0.00000000	      0.00000000	     81.54864823	    -15.58481090	     12.02089742	     43.97798907	     65.26196822	     17.75764949	     23.45852130	     88.28535501	    -16.71004282	     33.43714021	     32.60685931	     48.15355416	     26.35753256	     12.29865396
     20.45000000	      0.97782013	     -1.83988439	     93.17392031	      0.40611339	      0.93036162	      0.30619147	     14.28819902	     -4.02034508	      1.60668162	      0.27900632	    -15.98588432	      5.14718629	      0.00000000	      0.00000000	     13.54958864	     -6.17698821	      2.59644277	      0.20256847	    -11.60631860	      4.19657587	      0.00000000	      0.00000000	     -6.58169436	      0.29810531	     -0.09993830	    -12.22286459	      0.39648006	     -0.10618444	    -10.81306566	      0.72481325	     -0.10618444	     -7.52221848	      0.72481325	     -0.08744601	     -6.11176138	      0.60789635	     -0.08119986	     -3.76078016	      0.46176513	     -0.07495372	    -47.01238463	      3.37222690	     -0.55582682	      0.00000000	      0.00000000	     81.76464006	    -15.55719389	     11.92290304	     44.06369697	     65.27291813	     17.74200266	     23.44456130	     88.58181165	    -16.74267293	     33.33178293	     32.70148602	     48.15941659	     26.34251611	     12.28382554
     20.46000000	      1.01350358	     -1.93981091	     93.16053250	      0.40657705	      0.93024588	      0.30792674	     14.48324558	     -3.96493597	      1.58425151	      0.27771026	    -15.91162607	      5.09134594	      0.00000000	      0.00000000	     13.73588173	     -6.23013395	      2.58685319	      0.20106130	    -11.51996402	      4.13678661	      0.00000000	      0.00000000	     -6.59237926	      0.29313852	     -0.09560821	    -12.24270753	      0.38987423	     -0.10158372	    -10.83061989	      0.71273699	     -0.10158372	     -7.53443026	      0.71273699	     -0.08365718	     -6.12168338	      0.59776806	     -0.07768167	     -3.76688551	      0.45407156	     -0.07170615	    -47.08870584	      3.31604154	     -0.53174415	      0.00000000	      0.00000000	     81.95969857	    -15.51056819	     11.83314465	     44.14016348	     65.27837919	     17.72692805	     23.43135176	     88.85332146	    -16.76502889	     33.24444217	     32.79275327	     48.16176559	     26.32896602	     12.27287125
     20.47000000	      1.10985013	     -2.22252309	     93.10508809	      0.40713478	      0.92990464	      0.30966877	     14.86561869	     -3.83374656	      1.72105917	      0.27540984	    -15.77982144	      4.56367691	      0.00000000	      0.00000000	     14.07262323	     -6.35877457	      2.62524999	      0.19756057	    -11.31938662	      3.60122957	      0.00000000	      0.00000000	     -6.56370349	      0.29307396	     -0.08267183	    -12.18945376	      0.38978836	     -0.08783882	    -10.78350847	      0.71258002	     -0.08783882	     -7.50165672	      0.71258002	     -0.07233785	     -6.09505506	      0.59763642	     -0.06717086	     -3.75050018	      0.45397156	     -0.06200387	    -46.88387768	      3.31531123	     -0.45979591	      0.00000000	      0.00000000	     82.02340238	    -15.34547535	     11.43081700	     44.18528819	     65.31570951	     17.60865184	     23.40470818	     88.92952150	    -16.83064696	     33.06846000	     32.99099402	     48.18373578	     26.22041466	     12.32044953
     20.48000000	      1.13298813	     -2.27509119	     93.08594455	      0.40758790	      0.92978865	      0.31127158	     14.99672590	     -3.78790207	      1.68218656	      0.27418545	    -15.70966888	      4.56089055	      0.00000000	      0.00000000	     14.20432153	     -6.40191940	      2.61473888	      0.19663267	    -11.26622198	      3.59097323	      0.00000000	      0.00000000	     -6.56708535	      0.28643104	     -0.08080956	    -12.19573421	      0.38095329	     -0.08586016	    -10.78906452	      0.69642843	     -0.08586016	     -7.50552185	      0.69642843	     -0.07070837	     -6.09819546	      0.58409018	     -0.06565777	     -3.75243257	      0.44368168	     -0.06060717	    -46.90803396	      3.24016523	     -0.44943854	      0.00000000	      0.00000000	     82.17440292	    -15.31539287	     11.41018789	     44.20318892	     65.32420135	     17.59575029	     23.39935443	     89.15232477	    -16.84113614	     33.02878285	     33.02865791	     48.18218951	     26.20250569	     12.32307876
